# xmcd
#
# Track frame offsets: 
#        172
#        27262
#        46135
#        67780
#        89260
#        111262
#        134670
#        163227
#        182235
#        206960
#
# Disc length: 3151 seconds
#
# Revision: 3
# Processed by: cddbd v1.5PL3 Copyright (c) Steve Scherf et al.
# Submitted via: ExactAudioCopy v0.95a5
#
DISCID=8f0c4d0a
DTITLE=Robert Cray - Some Rainy Morning
DYEAR=1995
DGENRE=Blues
TTITLE0=Moan
TTITLE1=I'll Go On
TTITLE2=Steppin' Out
TTITLE3=Never Mattered Much
TTITLE4=Tell The Landlord
TTITLE5=Little Boy Big
TTITLE6=Enough For Me
TTITLE7=Jealous Love
TTITLE8=Will You Think Of Me
TTITLE9=Holdin' On
EXTD=YEAR: 1995 ID3G: 0
EXTT0=
EXTT1=
EXTT2=
EXTT3=
EXTT4=
EXTT5=
EXTT6=
EXTT7=
EXTT8=
EXTT9=
PLAYORDER=
